<?xml version="1.0" encoding="UTF-8" standalone="no"?>
<svg
   xmlns:dc="http://purl.org/dc/elements/1.1/"
   xmlns:cc="http://creativecommons.org/ns#"
   xmlns:rdf="http://www.w3.org/1999/02/22-rdf-syntax-ns#"
   xmlns:svg="http://www.w3.org/2000/svg"
   xmlns="http://www.w3.org/2000/svg"
   xmlns:sodipodi="http://sodipodi.sourceforge.net/DTD/sodipodi-0.dtd"
   xmlns:inkscape="http://www.inkscape.org/namespaces/inkscape"
   id="Capa_1"
   enable-background="new 0 0 512 512"
   height="224.33855"
   viewBox="0 0 200 224.33855"
   width="200"
   version="1.1"
   sodipodi:docname="icon-floppy.svg"
   inkscape:version="1.0.1 (c497b03c, 2020-09-10)"
   inkscape:export-filename="/Users/jasminedavis/Desktop/portfolio-site/styles/icon-floppy.png"
   inkscape:export-xdpi="96"
   inkscape:export-ydpi="96">
  <metadata
     id="metadata1110">
    <rdf:RDF>
      <cc:Work
         rdf:about="">
        <dc:format>image/svg+xml</dc:format>
        <dc:type
           rdf:resource="http://purl.org/dc/dcmitype/StillImage" />
        <dc:title></dc:title>
      </cc:Work>
    </rdf:RDF>
  </metadata>
  <defs
     id="defs1108" />
  <sodipodi:namedview
     pagecolor="#ffffff"
     bordercolor="#666666"
     borderopacity="1"
     objecttolerance="10"
     gridtolerance="10"
     guidetolerance="10"
     inkscape:pageopacity="0"
     inkscape:pageshadow="2"
     inkscape:window-width="1023"
     inkscape:window-height="721"
     id="namedview1106"
     showgrid="false"
     inkscape:zoom="1.4355469"
     inkscape:cx="132.74014"
     inkscape:cy="112.16927"
     inkscape:window-x="2334"
     inkscape:window-y="230"
     inkscape:window-maximized="0"
     inkscape:current-layer="Capa_1"
     fit-margin-top="0"
     fit-margin-left="0"
     fit-margin-right="0"
     fit-margin-bottom="0" />
  <g
     id="g1103"
     transform="matrix(0.43816121,0,0,0.43816121,-12.169489,0)">
    <path
       d="m 312.588,7.5 h -155.11 c -19.823,0 -35.892,16.069 -35.892,35.892 v 98.504 c 0,17.186 13.932,31.117 31.118,31.117 h 164.659 c 17.186,0 31.117,-13.932 31.117,-31.117 V 43.392 C 348.48,23.569 332.41,7.5 312.588,7.5 Z"
       fill="#9448f5"
       id="path1063" />
    <g
       id="g1067">
      <path
         d="m 328.75,398.829 v 82.34 c 0,12.886 -10.446,23.332 -23.332,23.332 h -38.946 c -12.886,0 -23.332,-10.446 -23.332,-23.332 0,-12.886 10.446,-23.332 23.332,-23.332 h 15.614 v -59.008 z"
         fill="#9448f5"
         id="path1065" />
    </g>
    <g
       id="g1071">
      <path
         d="m 220.162,398.829 v 82.34 c 0,12.886 -10.446,23.332 -23.332,23.332 h -38.946 c -12.886,0 -23.332,-10.446 -23.332,-23.332 0,-12.886 10.446,-23.332 23.332,-23.332 h 15.614 v -59.008 z"
         fill="#9448f5"
         id="path1069" />
    </g>
    <path
       d="m 173.499,398.829 h 46.663 v 31.178 h -46.663 z"
       fill="#6d00ca"
       id="path1073" />
    <path
       d="m 282.087,398.829 h 46.663 v 31.178 h -46.663 z"
       fill="#6d00ca"
       id="path1075" />
    <path
       d="m 425.726,23.149 h -41.934 c 28.167,0 51,22.833 51,51 v 273.68 c 0,28.167 -22.833,51 -51,51 h 41.934 c 28.167,0 51,-22.833 51,-51 V 74.149 c 0,-28.167 -22.833,-51 -51,-51 z"
       fill="#b98eff"
       id="path1077" />
    <path
       d="m 288.852,50.969 h -30.361 c -8.924,0 -16.158,7.234 -16.158,16.158 v 46.258 c 0,8.924 7.234,16.158 16.158,16.158 h 30.361 c 8.924,0 16.158,-7.234 16.158,-16.158 V 67.128 c 0.001,-8.924 -7.234,-16.159 -16.158,-16.159 z"
       fill="#ddbeff"
       id="path1079" />
    <g
       id="g1083">
      <path
         d="m 288.853,137.044 h -30.361 c -13.045,0 -23.658,-10.613 -23.658,-23.658 V 67.128 c 0,-13.046 10.613,-23.659 23.658,-23.659 h 30.361 c 13.045,0 23.658,10.613 23.658,23.659 v 46.258 c 0,13.045 -10.613,23.658 -23.658,23.658 z M 258.492,58.469 c -4.774,0 -8.658,3.885 -8.658,8.659 v 46.258 c 0,4.774 3.884,8.658 8.658,8.658 h 30.361 c 4.774,0 8.658,-3.884 8.658,-8.658 V 67.128 c 0,-4.774 -3.884,-8.659 -8.658,-8.659 z"
         fill="#6d00ca"
         id="path1081" />
    </g>
    <path
       d="m 383.792,23.149 h -41.567 c 3.944,5.763 6.255,12.732 6.255,20.243 v 98.504 c 0,17.186 -13.932,31.117 -31.117,31.117 H 152.704 c -17.186,0 -31.118,-13.932 -31.118,-31.117 V 43.392 c 0,-7.511 2.311,-14.48 6.255,-20.243 H 86.274 c -28.167,0 -51,22.834 -51,51 v 273.68 c 0,28.167 22.834,51 51,51 h 297.518 c 28.167,0 51,-22.833 51,-51 V 74.149 c 0,-28.167 -22.833,-51 -51,-51 z"
       fill="#ddbeff"
       id="path1085" />
    <path
       d="m 425.726,15.648 h -41.934 -37.87 C 337.956,6.094 325.971,0 312.588,0 H 157.478 C 144.095,0 132.11,6.094 124.144,15.648 h -37.87 c -32.257,0 -58.5,26.243 -58.5,58.5 v 273.68 c 0,32.257 26.243,58.5 58.5,58.5 h 79.725 v 44.009 h -8.114 c -17,0 -30.832,13.831 -30.832,30.831 0,17.001 13.831,30.832 30.832,30.832 h 38.946 c 17.001,0 30.832,-13.831 30.832,-30.832 v -74.84 h 46.924 v 44.009 h -8.114 c -17.001,0 -30.832,13.831 -30.832,30.831 0,17.001 13.831,30.832 30.832,30.832 h 38.946 c 17,0 30.832,-13.831 30.832,-30.832 v -74.84 h 47.523 c 0.007,0 0.013,0.001 0.019,0.001 h 41.934 c 32.257,0 58.5,-26.243 58.5,-58.501 V 74.148 c -10e-4,-32.256 -26.244,-58.5 -58.501,-58.5 z m -213.063,465.52 c 0,8.729 -7.102,15.832 -15.832,15.832 h -38.946 c -8.729,0 -15.832,-7.103 -15.832,-15.832 0,-8.729 7.102,-15.831 15.832,-15.831 h 15.614 c 4.142,0 7.5,-3.357 7.5,-7.5 v -51.508 h 31.664 z m 108.587,0 c 0,8.729 -7.102,15.832 -15.832,15.832 h -38.946 c -8.73,0 -15.832,-7.103 -15.832,-15.832 0,-8.729 7.102,-15.831 15.832,-15.831 h 15.614 c 4.142,0 7.5,-3.357 7.5,-7.5 V 406.329 H 321.25 Z M 157.478,15 h 155.11 c 15.772,0 28.392,12.867 28.392,28.392 v 98.504 c 0,13.022 -10.595,23.617 -23.618,23.617 H 152.704 c -13.022,0 -23.617,-10.595 -23.617,-23.617 V 43.392 C 129.086,27.641 141.918,15 157.478,15 Z M 42.774,347.828 V 74.148 c 0,-23.986 19.514,-43.5 43.5,-43.5 h 29.715 c -1.257,4.096 -1.903,8.507 -1.903,12.743 v 98.504 c 0,21.294 17.324,38.617 38.617,38.617 h 164.659 c 21.294,0 38.618,-17.323 38.618,-38.617 V 43.392 c 0,-4.203 -0.639,-8.624 -1.903,-12.743 h 29.715 c 23.986,0 43.5,19.514 43.5,43.5 v 273.68 c 0,23.981 -19.509,43.5 -43.5,43.5 H 86.274 c -23.986,-0.001 -43.5,-19.515 -43.5,-43.501 z m 426.452,0 c 0,23.986 -19.514,43.501 -43.5,43.501 h -2.859 c 12.294,-11.031 19.425,-26.903 19.425,-43.501 V 74.148 c 0,-16.086 -6.697,-32.041 -19.425,-43.5 h 2.859 c 23.986,0 43.5,19.514 43.5,43.5 z"
       fill="#6d00ca"
       id="path1087" />
    <path
       d="m 372.13,264.665 v 58.896 c 0,15.968 -12.944,28.902 -28.902,28.902 H 126.839 c -15.958,0 -28.902,-12.934 -28.902,-28.902 v -58.896 z"
       fill="#ffff6f"
       id="path1089" />
    <path
       d="m 372.13,248.282 v 16.383 H 97.937 v -16.383 c 0,-15.968 12.944,-28.902 28.902,-28.902 h 216.389 c 15.958,-0.001 28.902,12.934 28.902,28.902 z"
       fill="#ffff6f"
       id="path1091" />
    <path
       d="M 343.228,211.879 H 126.839 c -20.072,0 -36.402,16.33 -36.402,36.402 v 75.279 c 0,20.072 16.33,36.401 36.402,36.401 h 216.389 c 20.072,0 36.402,-16.329 36.402,-36.401 0,-15.459 0,-60.379 0,-75.279 0,-20.072 -16.33,-36.402 -36.402,-36.402 z m -237.791,36.402 c 0,-11.802 9.601,-21.402 21.402,-21.402 h 216.389 c 11.801,0 21.402,9.601 21.402,21.402 v 8.883 H 105.437 Z m 259.193,75.28 c 0,11.801 -9.601,21.401 -21.402,21.401 H 126.839 c -11.801,0 -21.402,-9.601 -21.402,-21.401 V 272.165 H 364.63 Z"
       fill="#ff9900"
       id="path1093" />
    <circle
       cx="291.724"
       cy="298.21701"
       fill="#ff9900"
       r="12.028"
       id="circle1095" />
    <g
       id="g1099">
      <path
         d="m 260.503,326.847 h -50.94 c -4.142,0 -7.5,-3.357 -7.5,-7.5 0,-4.143 3.358,-7.5 7.5,-7.5 h 50.94 c 4.142,0 7.5,3.357 7.5,7.5 0,4.143 -3.358,7.5 -7.5,7.5 z"
         fill="#ff9900"
         id="path1097" />
    </g>
    <circle
       cx="178.342"
       cy="298.21701"
       fill="#ff9900"
       r="12.028"
       id="circle1101" />
  </g>
</svg>
