<?xml version="1.0" encoding="UTF-8" standalone="no"?>
<svg
   xmlns:dc="http://purl.org/dc/elements/1.1/"
   xmlns:cc="http://creativecommons.org/ns#"
   xmlns:rdf="http://www.w3.org/1999/02/22-rdf-syntax-ns#"
   xmlns:svg="http://www.w3.org/2000/svg"
   xmlns="http://www.w3.org/2000/svg"
   xmlns:sodipodi="http://sodipodi.sourceforge.net/DTD/sodipodi-0.dtd"
   xmlns:inkscape="http://www.inkscape.org/namespaces/inkscape"
   id="Capa_1"
   enable-background="new 0 0 512.054 512.054"
   height="197.29799"
   viewBox="0 0 200.02109 197.3188"
   width="200"
   version="1.1"
   sodipodi:docname="icon-shapes.svg"
   inkscape:version="1.0.1 (c497b03c, 2020-09-10)">
  <metadata
     id="metadata1024">
    <rdf:RDF>
      <cc:Work
         rdf:about="">
        <dc:format>image/svg+xml</dc:format>
        <dc:type
           rdf:resource="http://purl.org/dc/dcmitype/StillImage" />
        <dc:title></dc:title>
      </cc:Work>
    </rdf:RDF>
  </metadata>
  <defs
     id="defs1022" />
  <sodipodi:namedview
     pagecolor="#ffffff"
     bordercolor="#666666"
     borderopacity="1"
     objecttolerance="10"
     gridtolerance="10"
     guidetolerance="10"
     inkscape:pageopacity="0"
     inkscape:pageshadow="2"
     inkscape:window-width="1252"
     inkscape:window-height="811"
     id="namedview1020"
     showgrid="false"
     inkscape:zoom="1.4355469"
     inkscape:cx="255.99979"
     inkscape:cy="252.54136"
     inkscape:window-x="1952"
     inkscape:window-y="77"
     inkscape:window-maximized="0"
     inkscape:current-layer="Capa_1" />
  <g
     id="g1017"
     transform="matrix(0.39062508,0,0,0.39062508,-8.1929299e-5,-1.3511722)">
    <g
       id="g965">
      <path
         d="m 355.194,384.194 v 91.09 c 0,14.255 -11.556,25.811 -25.811,25.811 h -43.085 c -14.255,0 -25.811,-11.556 -25.811,-25.811 0,-14.255 11.556,-25.811 25.811,-25.811 h 17.274 v -65.279 z"
         fill="#ff9900"
         id="path963" />
    </g>
    <g
       id="g971">
      <g
         id="g969">
        <path
           d="m 329.383,508.595 h -43.084 c -18.368,0 -33.311,-14.943 -33.311,-33.312 0,-18.367 14.943,-33.311 33.311,-33.311 h 9.773 v -57.779 c 0,-4.143 3.358,-7.5 7.5,-7.5 h 51.622 c 4.142,0 7.5,3.357 7.5,7.5 v 91.09 c 0,18.369 -14.943,33.312 -33.311,33.312 z m -43.084,-51.622 c -10.097,0 -18.311,8.214 -18.311,18.311 0,10.097 8.214,18.312 18.311,18.312 h 43.084 c 10.097,0 18.311,-8.215 18.311,-18.312 v -83.59 h -36.622 v 57.779 c 0,4.143 -3.358,7.5 -7.5,7.5 z"
           fill="#f95116"
           id="path967" />
      </g>
    </g>
    <path
       d="m 303.572,384.194 h 51.622 v 34.491 h -51.622 z"
       fill="#f95116"
       id="path973" />
    <path
       d="m 223.476,428.467 c -0.314,0.012 -0.626,0.018 -0.937,0.018 -12.854,0 -23.514,-10.168 -24.01,-23.124 -0.312,-8.149 -6.937,-14.777 -15.084,-15.096 v 59.207 h -17.273 c -14.255,0 -25.811,11.556 -25.811,25.811 0,14.255 11.556,25.811 25.811,25.811 h 43.085 c 14.255,0 25.811,-11.556 25.811,-25.811 v -50.312 c -3.391,2.072 -7.34,3.333 -11.592,3.496 z"
       fill="#ff9900"
       id="path975" />
    <g
       id="g979">
      <path
         d="m 209.256,508.595 h -43.085 c -18.368,0 -33.311,-14.943 -33.311,-33.312 0,-18.367 14.943,-33.311 33.311,-33.311 h 9.773 v -51.707 c 0,-2.04 0.831,-3.992 2.301,-5.406 1.471,-1.413 3.447,-2.166 5.492,-2.088 12.035,0.47 21.824,10.267 22.286,22.303 0.351,9.138 7.949,16.245 17.166,15.898 2.818,-0.108 5.574,-0.938 7.97,-2.402 2.315,-1.414 5.213,-1.466 7.579,-0.14 2.366,1.327 3.83,3.828 3.83,6.541 v 50.312 c -0.001,18.369 -14.944,33.312 -33.312,33.312 z m -43.085,-51.622 c -10.097,0 -18.311,8.214 -18.311,18.311 0,10.097 8.214,18.312 18.311,18.312 h 43.085 c 10.097,0 18.311,-8.215 18.311,-18.312 v -39.7 c -1.256,0.202 -2.527,0.329 -3.803,0.378 -0.003,0 -0.005,0.001 -0.008,0.001 -17.59,0.649 -32.055,-12.899 -32.722,-30.313 -0.012,-0.315 -0.042,-0.626 -0.089,-0.932 v 44.756 c 0,4.143 -3.358,7.5 -7.5,7.5 h -17.274 z m 57.305,-28.506 h 0.01 z"
         fill="#f95116"
         id="path977" />
    </g>
    <path
       d="M 122.124,328.958 C 121.811,320.804 115.18,314.173 107.027,313.861 86.901,313.09 69.072,302.826 57.888,287.467 L 41.87,311.232 c -20.952,31.087 1.322,72.962 38.811,72.962 h 78.093 c -20.916,-9.925 -35.716,-30.904 -36.65,-55.236 z"
       fill="#ff9bff"
       id="path981" />
    <path
       d="M 496.429,311.232 445.6,235.817 c -11.754,6.213 -25.143,9.746 -39.362,9.746 -46.597,0 -84.371,-37.774 -84.371,-84.371 0,-25.866 11.651,-49.001 29.979,-64.477 L 307.962,31.604 C 289.409,4.077 248.893,4.077 230.34,31.604 L 91.763,237.208 c 1.133,4.346 1.833,8.86 2.011,13.502 0.313,8.154 6.944,14.785 15.096,15.097 33.109,1.269 60.039,28.199 61.308,61.308 0.313,8.153 6.944,14.784 15.097,15.097 26.352,1.01 48.774,18.283 57.474,41.982 h 214.869 c 37.489,0 59.763,-41.875 38.811,-72.962 z"
       fill="#ff9bff"
       id="path983" />
    <circle
       cx="336.41699"
       cy="268.16299"
       fill="#e207b9"
       r="14.272"
       id="circle985" />
    <g
       id="g989">
      <path
         d="m 299.371,300.736 h -60.443 c -4.142,0 -7.5,-3.357 -7.5,-7.5 0,-4.143 3.358,-7.5 7.5,-7.5 h 60.443 c 4.142,0 7.5,3.357 7.5,7.5 0,4.143 -3.358,7.5 -7.5,7.5 z"
         fill="#e207b9"
         id="path987" />
    </g>
    <circle
       cx="201.883"
       cy="268.16299"
       fill="#e207b9"
       r="14.272"
       id="circle991" />
    <g
       id="g995">
      <path
         d="M 158.776,391.694 H 80.682 c -20.427,0 -38.35,-10.767 -47.942,-28.802 -9.593,-18.034 -8.504,-38.913 2.912,-55.852 L 51.67,283.275 c 1.367,-2.028 3.637,-3.263 6.083,-3.308 2.444,-0.039 4.759,1.107 6.199,3.084 10.307,14.155 26.112,22.653 43.363,23.314 12.045,0.461 21.842,10.259 22.304,22.304 0.805,20.977 13.209,39.655 32.372,48.747 3.169,1.504 4.873,5.003 4.102,8.424 -0.771,3.423 -3.81,5.854 -7.317,5.854 z M 58.567,299.88 48.091,315.423 c -8.263,12.26 -9.051,27.372 -2.108,40.425 6.943,13.053 19.915,20.846 34.7,20.846 h 54.635 c -12.443,-12.484 -19.991,-29.283 -20.688,-47.449 -0.163,-4.261 -3.628,-7.726 -7.889,-7.89 -18.385,-0.704 -35.459,-8.408 -48.174,-21.475 z"
         fill="#e207b9"
         id="path993" />
    </g>
    <g
       id="g999">
      <path
         d="M 457.617,391.694 H 242.748 c -3.146,0 -5.957,-1.963 -7.041,-4.915 -7.824,-21.312 -28.207,-36.21 -50.721,-37.073 -12.044,-0.461 -21.842,-10.258 -22.304,-22.303 -1.12,-29.217 -24.883,-52.98 -54.1,-54.102 -12.045,-0.461 -21.842,-10.259 -22.304,-22.304 -0.152,-3.965 -0.749,-7.968 -1.773,-11.896 -0.543,-2.083 -0.165,-4.299 1.038,-6.084 L 224.12,27.413 c 10.109,-14.999 26.943,-23.954 45.03,-23.954 18.088,0 34.921,8.955 45.03,23.954 l 43.884,65.11 c 2.14,3.175 1.545,7.451 -1.38,9.922 -17.36,14.66 -27.317,36.072 -27.317,58.747 0,42.387 34.484,76.871 76.871,76.871 12.65,0 24.714,-2.986 35.857,-8.877 3.388,-1.793 7.583,-0.738 9.724,2.439 l 50.829,75.415 c 11.417,16.938 12.505,37.817 2.912,55.852 -9.593,18.035 -27.515,28.802 -47.943,28.802 z m -209.837,-15 h 209.838 c 14.785,0 27.756,-7.793 34.7,-20.846 6.943,-13.053 6.155,-28.165 -2.108,-40.425 l -47.206,-70.038 c -11.544,5.037 -24.126,7.678 -36.767,7.678 -50.658,0 -91.871,-41.213 -91.871,-91.871 0,-24.842 9.995,-48.412 27.637,-65.661 L 301.741,35.796 c -7.426,-11.018 -19.305,-17.337 -32.592,-17.337 -13.286,0 -25.166,6.319 -32.591,17.337 L 99.813,238.684 c 0.817,3.891 1.305,7.825 1.456,11.738 0.163,4.262 3.628,7.727 7.889,7.891 37.001,1.418 67.097,31.514 68.515,68.515 0.164,4.261 3.629,7.726 7.889,7.89 27.196,1.041 51.082,17.33 62.218,41.976 z"
         fill="#e207b9"
         id="path997" />
    </g>
    <g
       id="g1003">
      <path
         d="m 222.539,428.485 c -12.854,0 -23.514,-10.168 -24.01,-23.124 -0.313,-8.153 -6.944,-14.784 -15.097,-15.097 -33.108,-1.269 -60.038,-28.198 -61.308,-61.307 -0.313,-8.154 -6.944,-14.785 -15.097,-15.097 C 73.918,312.591 46.989,285.661 45.72,252.552 45.407,244.399 38.776,237.768 30.623,237.455 17.353,236.946 7.009,225.776 7.518,212.507 c 0.509,-13.27 11.679,-23.614 24.948,-23.105 33.108,1.27 60.037,28.199 61.307,61.307 0.313,8.154 6.944,14.785 15.096,15.097 33.109,1.269 60.039,28.199 61.308,61.308 0.313,8.153 6.944,14.784 15.097,15.097 33.109,1.269 60.039,28.199 61.308,61.308 0.509,13.27 -9.836,24.439 -23.106,24.948 -0.313,0.012 -0.626,0.018 -0.937,0.018 z"
         fill="#88f8d8"
         id="path1001" />
    </g>
    <g
       id="g1009">
      <g
         id="g1007">
        <path
           d="m 222.539,435.985 c -17.014,0 -30.853,-13.325 -31.505,-30.336 -0.163,-4.261 -3.628,-7.726 -7.889,-7.89 -37,-1.418 -67.096,-31.514 -68.515,-68.515 -0.163,-4.261 -3.628,-7.726 -7.889,-7.89 -37.001,-1.418 -67.096,-31.514 -68.515,-68.515 -0.164,-4.261 -3.629,-7.726 -7.89,-7.89 -8.42,-0.322 -16.21,-3.905 -21.935,-10.087 -5.725,-6.182 -8.7,-14.224 -8.377,-22.644 0.667,-17.381 15.348,-31.01 32.73,-30.312 37,1.42 67.095,31.515 68.515,68.515 0.163,4.261 3.628,7.726 7.889,7.89 37.001,1.418 67.097,31.514 68.515,68.515 0.164,4.261 3.629,7.726 7.889,7.89 37.001,1.418 67.097,31.514 68.515,68.515 0.666,17.381 -12.932,32.063 -30.313,32.729 -0.416,0.017 -0.821,0.025 -1.225,0.025 z M 31.537,196.885 c -8.832,0 -16.183,7.01 -16.524,15.911 -0.169,4.415 1.391,8.633 4.394,11.875 3.003,3.242 7.088,5.121 11.504,5.291 12.044,0.461 21.842,10.258 22.304,22.303 1.12,29.217 24.883,52.98 54.1,54.102 12.045,0.461 21.842,10.259 22.304,22.304 1.121,29.216 24.884,52.979 54.101,54.101 12.045,0.461 21.842,10.259 22.304,22.304 0.35,9.141 7.953,16.265 17.173,15.897 9.108,-0.349 16.24,-8.05 15.891,-17.166 -1.12,-29.216 -24.883,-52.979 -54.101,-54.101 -12.044,-0.461 -21.841,-10.258 -22.304,-22.303 -1.12,-29.217 -24.883,-52.98 -54.101,-54.102 -12.044,-0.461 -21.841,-10.259 -22.303,-22.304 -1.121,-29.215 -24.884,-52.979 -54.1,-54.101 -0.215,-0.007 -0.429,-0.011 -0.642,-0.011 z"
           fill="#007ea8"
           id="path1005" />
      </g>
    </g>
    <circle
       cx="406.237"
       cy="161.192"
       fill="#565eec"
       r="84.371002"
       id="circle1011" />
    <g
       id="g1015">
      <path
         d="m 406.237,253.063 c -50.658,0 -91.871,-41.213 -91.871,-91.871 0,-50.658 41.213,-91.871 91.871,-91.871 50.658,0 91.871,41.213 91.871,91.871 0,50.658 -41.213,91.871 -91.871,91.871 z m 0,-168.742 c -42.387,0 -76.871,34.484 -76.871,76.871 0,42.387 34.484,76.871 76.871,76.871 42.387,0 76.871,-34.484 76.871,-76.871 0,-42.387 -34.484,-76.871 -76.871,-76.871 z"
         fill="#2115c2"
         id="path1013" />
    </g>
  </g>
</svg>
