<?xml version="1.0" encoding="UTF-8" standalone="no"?>
<svg
   xmlns:dc="http://purl.org/dc/elements/1.1/"
   xmlns:cc="http://creativecommons.org/ns#"
   xmlns:rdf="http://www.w3.org/1999/02/22-rdf-syntax-ns#"
   xmlns:svg="http://www.w3.org/2000/svg"
   xmlns="http://www.w3.org/2000/svg"
   xmlns:sodipodi="http://sodipodi.sourceforge.net/DTD/sodipodi-0.dtd"
   xmlns:inkscape="http://www.inkscape.org/namespaces/inkscape"
   id="Capa_1"
   enable-background="new 0 0 512 512"
   height="193.65312"
   viewBox="0 0 200 193.65312"
   width="200"
   version="1.1"
   sodipodi:docname="icon-computer.svg"
   inkscape:version="1.0.1 (c497b03c, 2020-09-10)"
   inkscape:export-filename="/Users/jasminedavis/Desktop/portfolio-site/styles/icon-computer.png"
   inkscape:export-xdpi="96"
   inkscape:export-ydpi="96">
  <metadata
     id="metadata886">
    <rdf:RDF>
      <cc:Work
         rdf:about="">
        <dc:format>image/svg+xml</dc:format>
        <dc:type
           rdf:resource="http://purl.org/dc/dcmitype/StillImage" />
        <dc:title></dc:title>
      </cc:Work>
    </rdf:RDF>
  </metadata>
  <defs
     id="defs884" />
  <sodipodi:namedview
     pagecolor="#ffffff"
     bordercolor="#666666"
     borderopacity="1"
     objecttolerance="10"
     gridtolerance="10"
     guidetolerance="10"
     inkscape:pageopacity="0"
     inkscape:pageshadow="2"
     inkscape:window-width="1680"
     inkscape:window-height="952"
     id="namedview882"
     showgrid="false"
     fit-margin-top="0"
     fit-margin-left="0"
     fit-margin-right="0"
     fit-margin-bottom="0"
     inkscape:zoom="1.2070312"
     inkscape:cx="256"
     inkscape:cy="247.876"
     inkscape:window-x="1792"
     inkscape:window-y="23"
     inkscape:window-maximized="0"
     inkscape:current-layer="Capa_1" />
  <g
     id="g879"
     transform="matrix(0.390625,0,0,0.390625,0,-3.1734375)">
    <path
       d="M 347.12,15.623 H 100.254 c -22.466,0 -40.678,18.212 -40.678,40.678 v 225.115 c 0,22.466 18.212,40.678 40.678,40.678 H 347.12 c 22.466,0 40.678,-18.212 40.678,-40.678 V 56.301 C 387.797,33.835 369.585,15.623 347.12,15.623 Z"
       fill="#ddbeff"
       id="path833" />
    <path
       d="M 399.585,322.094 H 47.788 C 25.537,322.094 7.5,340.132 7.5,362.382 v 93.706 c 0,22.251 18.038,40.288 40.288,40.288 h 351.797 c 22.251,0 40.288,-18.038 40.288,-40.288 v -93.706 c 0,-22.25 -18.037,-40.288 -40.288,-40.288 z"
       fill="#ff9bff"
       id="path835" />
    <path
       d="M 124.828,59.125 H 322.546 V 278.593 H 124.828 Z"
       fill="#88f8d8"
       transform="rotate(90,223.6865,168.8585)"
       id="path837" />
    <g
       id="g841">
      <path
         d="M 333.421,275.218 H 113.953 c -4.142,0 -7.5,-3.358 -7.5,-7.5 V 70 c 0,-4.142 3.358,-7.5 7.5,-7.5 h 219.468 c 4.142,0 7.5,3.358 7.5,7.5 v 197.718 c 0,4.142 -3.358,7.5 -7.5,7.5 z m -211.968,-15 H 325.921 V 77.5 H 121.453 Z"
         fill="#007ea8"
         id="path839" />
    </g>
    <g
       fill="#88f8d8"
       id="g849">
      <circle
         cx="343.315"
         cy="409.23499"
         r="21.159"
         id="circle843" />
      <circle
         cx="268.89999"
         cy="409.23499"
         r="21.159"
         id="circle845" />
      <path
         d="M 174.799,388.076 H 100.51 c -11.686,0 -21.159,9.473 -21.159,21.159 0,11.686 9.473,21.159 21.159,21.159 h 74.289 c 11.686,0 21.159,-9.473 21.159,-21.159 0.001,-11.686 -9.473,-21.159 -21.159,-21.159 z"
         id="path847" />
    </g>
    <g
       id="g853">
      <path
         d="m 343.314,437.895 c -15.803,0 -28.659,-12.856 -28.659,-28.66 0,-15.803 12.856,-28.659 28.659,-28.659 15.803,0 28.66,12.856 28.66,28.659 0,15.804 -12.856,28.66 -28.66,28.66 z m 0,-42.319 c -7.532,0 -13.659,6.127 -13.659,13.659 0,7.532 6.127,13.66 13.659,13.66 7.532,0 13.66,-6.128 13.66,-13.66 0,-7.532 -6.128,-13.659 -13.66,-13.659 z"
         fill="#007ea8"
         id="path851" />
    </g>
    <g
       id="g857">
      <path
         d="m 268.9,437.895 c -15.803,0 -28.66,-12.856 -28.66,-28.66 0,-15.803 12.856,-28.659 28.66,-28.659 15.803,0 28.659,12.856 28.659,28.659 10e-4,15.804 -12.856,28.66 -28.659,28.66 z m 0,-42.319 c -7.532,0 -13.66,6.127 -13.66,13.659 0,7.532 6.128,13.66 13.66,13.66 7.532,0 13.659,-6.128 13.659,-13.66 0,-7.532 -6.127,-13.659 -13.659,-13.659 z"
         fill="#007ea8"
         id="path855" />
    </g>
    <g
       id="g861">
      <path
         d="m 174.799,437.895 h -74.29 c -15.803,0 -28.659,-12.856 -28.659,-28.659 0,-15.803 12.856,-28.659 28.659,-28.659 h 74.29 c 15.803,0 28.659,12.856 28.659,28.659 0,15.803 -12.856,28.659 -28.659,28.659 z M 100.51,395.576 c -7.532,0 -13.659,6.127 -13.659,13.659 0,7.532 6.127,13.659 13.659,13.659 h 74.29 c 7.532,0 13.659,-6.127 13.659,-13.659 0,-7.532 -6.127,-13.659 -13.659,-13.659 z"
         fill="#007ea8"
         id="path859" />
    </g>
    <circle
       cx="273.90399"
       cy="150.086"
       fill="#007ea8"
       r="10.655"
       id="circle863" />
    <g
       id="g867">
      <path
         d="m 246.248,186.304 h -45.123 c -4.142,0 -7.5,-3.358 -7.5,-7.5 0,-4.142 3.358,-7.5 7.5,-7.5 h 45.123 c 4.142,0 7.5,3.358 7.5,7.5 0,4.142 -3.358,7.5 -7.5,7.5 z"
         fill="#007ea8"
         id="path865" />
    </g>
    <circle
       cx="173.46899"
       cy="150.086"
       fill="#007ea8"
       r="10.655"
       id="circle869" />
    <path
       d="M 412.371,15.623 H 347.12 c 22.466,0 40.678,18.212 40.678,40.678 v 225.115 c 0,22.466 -18.212,40.678 -40.678,40.678 h 65.252 c 22.466,0 40.678,-18.212 40.678,-40.678 V 56.301 C 453.049,33.835 434.837,15.623 412.371,15.623 Z"
       fill="#b98eff"
       id="path871" />
    <path
       d="m 464.212,322.094 h -64.627 c 22.251,0 40.288,18.038 40.288,40.288 v 93.706 c 0,22.251 -18.038,40.288 -40.288,40.288 h 64.627 c 22.251,0 40.288,-18.038 40.288,-40.288 v -93.706 c 0,-22.25 -18.038,-40.288 -40.288,-40.288 z"
       fill="#ff63ed"
       id="path873" />
    <path
       d="M 412.371,8.124 H 347.12 100.253 c -26.565,0 -48.178,21.612 -48.178,48.178 v 225.115 c 0,26.565 21.612,48.178 48.178,48.178 h 246.867 65.251 c 26.565,0 48.178,-21.612 48.178,-48.178 V 56.301 c 0,-26.565 -21.612,-48.177 -48.178,-48.177 z M 67.076,281.417 V 56.301 c 0,-18.294 14.883,-33.178 33.178,-33.178 H 347.12 c 18.294,0 33.178,14.883 33.178,33.178 v 225.115 c 0,18.294 -14.883,33.178 -33.178,33.178 H 100.253 c -18.294,0 -33.177,-14.883 -33.177,-33.177 z m 378.473,0 c 0,18.294 -14.883,33.178 -33.178,33.178 h -30.349 c 8.238,-8.666 13.275,-20.436 13.275,-33.178 V 56.301 c 0,-12.326 -4.744,-24.203 -13.275,-33.178 h 30.349 c 18.294,0 33.178,14.883 33.178,33.178 z"
       fill="#6d00ca"
       id="path875" />
    <path
       d="M 464.212,314.594 H 399.585 47.788 C 21.438,314.594 0,336.032 0,362.382 v 93.706 c 0,26.351 21.438,47.788 47.788,47.788 h 416.424 c 26.351,0 47.788,-21.438 47.788,-47.788 v -93.706 c 0,-26.35 -21.437,-47.788 -47.788,-47.788 z M 15,456.088 v -93.706 c 0,-18.08 14.708,-32.788 32.788,-32.788 h 351.797 c 18.08,0 32.788,14.708 32.788,32.788 v 93.706 c 0,18.08 -14.708,32.788 -32.788,32.788 H 47.788 C 29.708,488.876 15,474.168 15,456.088 Z m 482,0 c 0,18.08 -14.708,32.788 -32.788,32.788 H 434.32 c 8.079,-8.558 13.053,-20.171 13.053,-32.788 v -93.706 c 0,-12.533 -4.919,-24.171 -13.053,-32.788 h 29.892 c 18.08,0 32.788,14.708 32.788,32.788 z"
       fill="#e207b9"
       id="path877" />
  </g>
</svg>
