<?xml version="1.0" encoding="UTF-8" standalone="no"?>
<svg
   xmlns:dc="http://purl.org/dc/elements/1.1/"
   xmlns:cc="http://creativecommons.org/ns#"
   xmlns:rdf="http://www.w3.org/1999/02/22-rdf-syntax-ns#"
   xmlns:svg="http://www.w3.org/2000/svg"
   xmlns="http://www.w3.org/2000/svg"
   xmlns:sodipodi="http://sodipodi.sourceforge.net/DTD/sodipodi-0.dtd"
   xmlns:inkscape="http://www.inkscape.org/namespaces/inkscape"
   id="Capa_1"
   enable-background="new 0 0 512 512"
   height="256.41272"
   viewBox="0 0 200 256.41272"
   width="200"
   version="1.1"
   sodipodi:docname="icon-phone.svg"
   inkscape:version="1.0.1 (c497b03c, 2020-09-10)">
  <metadata
     id="metadata961">
    <rdf:RDF>
      <cc:Work
         rdf:about="">
        <dc:format>image/svg+xml</dc:format>
        <dc:type
           rdf:resource="http://purl.org/dc/dcmitype/StillImage" />
        <dc:title></dc:title>
      </cc:Work>
    </rdf:RDF>
  </metadata>
  <defs
     id="defs959" />
  <sodipodi:namedview
     pagecolor="#ffffff"
     bordercolor="#666666"
     borderopacity="1"
     objecttolerance="10"
     gridtolerance="10"
     guidetolerance="10"
     inkscape:pageopacity="0"
     inkscape:pageshadow="2"
     inkscape:window-width="1304"
     inkscape:window-height="789"
     id="namedview957"
     showgrid="false"
     inkscape:zoom="1.4355469"
     inkscape:cx="199.67818"
     inkscape:cy="200.27211"
     inkscape:window-x="1982"
     inkscape:window-y="23"
     inkscape:window-maximized="0"
     inkscape:current-layer="Capa_1" />
  <g
     id="g954"
     transform="matrix(0.50080607,0,0,0.50080607,-28.206307,0)">
    <path
       d="m 365.355,56.741 h 48.165 v 65.323 h -48.165 z"
       fill="#ff63ed"
       id="path888" />
    <path
       d="M 413.521,22.556 V 56.741 H 365.356 V 22.556 c 0,-8.318 6.749,-15.056 15.056,-15.056 h 18.053 c 8.307,0 15.056,6.739 15.056,15.056 z"
       fill="#ff9bff"
       id="path890" />
    <path
       d="m 398.464,0 h -18.053 c -12.438,0 -22.556,10.118 -22.556,22.556 v 99.509 c 0,4.143 3.357,7.5 7.5,7.5 h 48.165 c 4.143,0 7.5,-3.357 7.5,-7.5 0,-11.225 0,-89.315 0,-99.509 C 421.021,10.118 410.902,0 398.464,0 Z m -25.609,22.556 c 0,-4.166 3.39,-7.556 7.556,-7.556 h 18.053 c 4.167,0 7.557,3.39 7.557,7.556 V 49.242 H 372.856 V 22.556 Z m 33.166,92.008 H 372.856 V 64.242 h 33.165 z"
       fill="#e207b9"
       id="path892" />
    <path
       d="m 375.413,122.065 c -19.139,0 -34.658,15.519 -34.658,34.668 v 254.032 l -30.997,49.121 c -12.22,19.371 1.7,44.615 24.611,44.615 H 92.989 c -22.911,0 -36.83,-25.244 -24.611,-44.615 L 99.375,410.765 V 156.733 c 0,-19.149 15.519,-34.668 34.658,-34.668 z"
       fill="#a4bcff"
       id="path894" />
    <path
       d="m 413.517,122.067 h -38.099 c -19.143,0 -34.662,15.519 -34.662,34.662 v 254.04 l -30.994,49.116 c -12.224,19.372 1.697,44.618 24.604,44.618 h 66.094 c 26.355,0 47.719,-21.365 47.719,-47.719 V 156.729 c 0,-19.143 -15.519,-34.662 -34.662,-34.662 z"
       fill="#7181ff"
       id="path896" />
    <path
       d="m 147.023,171.431 h 146.086 v 76.34 H 147.023 Z"
       fill="#ffff6f"
       id="path898" />
    <g
       id="g902">
      <path
         d="M 293.109,255.271 H 147.023 c -4.142,0 -7.5,-3.357 -7.5,-7.5 v -76.34 c 0,-4.143 3.358,-7.5 7.5,-7.5 h 146.086 c 4.143,0 7.5,3.357 7.5,7.5 v 76.34 c 0,4.143 -3.358,7.5 -7.5,7.5 z m -138.586,-15 h 131.086 v -61.34 H 154.523 Z"
         fill="#ff9900"
         id="path900" />
    </g>
    <g
       fill="#ff63ed"
       id="g916">
      <circle
         cx="220.06599"
         cy="296.39999"
         r="17.330999"
         id="circle904" />
      <circle
         cx="285.06299"
         cy="296.39999"
         r="17.330999"
         id="circle906" />
      <circle
         cx="155.069"
         cy="296.39999"
         r="17.330999"
         id="circle908" />
      <circle
         cx="220.06599"
         cy="365.26801"
         r="17.330999"
         id="circle910" />
      <circle
         cx="285.06299"
         cy="365.26801"
         r="17.330999"
         id="circle912" />
      <circle
         cx="155.069"
         cy="365.26801"
         r="17.330999"
         id="circle914" />
    </g>
    <g
       id="g942">
      <g
         id="g920">
        <path
           d="m 220.066,321.231 c -13.692,0 -24.831,-11.139 -24.831,-24.83 0,-13.691 11.139,-24.831 24.831,-24.831 13.692,0 24.831,11.14 24.831,24.831 0,13.691 -11.139,24.83 -24.831,24.83 z m 0,-34.661 c -5.42,0 -9.831,4.41 -9.831,9.831 0,5.42 4.41,9.83 9.831,9.83 5.421,0 9.831,-4.41 9.831,-9.83 0,-5.421 -4.41,-9.831 -9.831,-9.831 z"
           fill="#e207b9"
           id="path918" />
      </g>
      <g
         id="g924">
        <path
           d="m 285.063,321.231 c -13.691,0 -24.831,-11.139 -24.831,-24.83 0,-13.691 11.14,-24.831 24.831,-24.831 13.692,0 24.831,11.14 24.831,24.831 0,13.691 -11.14,24.83 -24.831,24.83 z m 0,-34.661 c -5.421,0 -9.831,4.41 -9.831,9.831 0,5.42 4.41,9.83 9.831,9.83 5.421,0 9.831,-4.41 9.831,-9.83 0,-5.421 -4.41,-9.831 -9.831,-9.831 z"
           fill="#e207b9"
           id="path922" />
      </g>
      <g
         id="g928">
        <path
           d="m 155.069,321.231 c -13.692,0 -24.831,-11.139 -24.831,-24.83 0,-13.691 11.139,-24.831 24.831,-24.831 13.692,0 24.831,11.14 24.831,24.831 0,13.691 -11.139,24.83 -24.831,24.83 z m 0,-34.661 c -5.421,0 -9.831,4.41 -9.831,9.831 0,5.42 4.41,9.83 9.831,9.83 5.421,0 9.831,-4.41 9.831,-9.83 0,-5.421 -4.41,-9.831 -9.831,-9.831 z"
           fill="#e207b9"
           id="path926" />
      </g>
      <g
         id="g932">
        <path
           d="m 220.066,390.099 c -13.692,0 -24.831,-11.14 -24.831,-24.831 0,-13.691 11.139,-24.831 24.831,-24.831 13.692,0 24.831,11.14 24.831,24.831 0,13.691 -11.139,24.831 -24.831,24.831 z m 0,-34.663 c -5.42,0 -9.831,4.41 -9.831,9.831 0,5.421 4.41,9.831 9.831,9.831 5.421,0 9.831,-4.41 9.831,-9.831 0,-5.421 -4.41,-9.831 -9.831,-9.831 z"
           fill="#e207b9"
           id="path930" />
      </g>
      <g
         id="g936">
        <path
           d="m 285.063,390.099 c -13.691,0 -24.831,-11.14 -24.831,-24.831 0,-13.691 11.14,-24.831 24.831,-24.831 13.692,0 24.831,11.14 24.831,24.831 0,13.691 -11.14,24.831 -24.831,24.831 z m 0,-34.663 c -5.421,0 -9.831,4.41 -9.831,9.831 0,5.421 4.41,9.831 9.831,9.831 5.421,0 9.831,-4.41 9.831,-9.831 0,-5.421 -4.41,-9.831 -9.831,-9.831 z"
           fill="#e207b9"
           id="path934" />
      </g>
      <g
         id="g940">
        <path
           d="m 155.069,390.099 c -13.692,0 -24.831,-11.14 -24.831,-24.831 0,-13.691 11.139,-24.831 24.831,-24.831 13.692,0 24.831,11.14 24.831,24.831 0,13.691 -11.139,24.831 -24.831,24.831 z m 0,-34.663 c -5.421,0 -9.831,4.41 -9.831,9.831 0,5.421 4.41,9.831 9.831,9.831 5.421,0 9.831,-4.41 9.831,-9.831 0,-5.421 -4.41,-9.831 -9.831,-9.831 z"
           fill="#e207b9"
           id="path938" />
      </g>
    </g>
    <circle
       cx="263.13101"
       cy="202.121"
       fill="#ff9900"
       r="9.1370001"
       id="circle944" />
    <g
       id="g948">
      <path
         d="m 239.414,225.673 h -38.696 c -4.142,0 -7.5,-3.357 -7.5,-7.5 0,-4.143 3.358,-7.5 7.5,-7.5 h 38.696 c 4.142,0 7.5,3.357 7.5,7.5 0,4.143 -3.358,7.5 -7.5,7.5 z"
         fill="#ff9900"
         id="path946" />
    </g>
    <circle
       cx="177"
       cy="202.121"
       fill="#ff9900"
       r="9.1370001"
       id="circle950" />
    <path
       d="m 413.521,114.564 h -38.108 -241.38 c -23.246,0 -42.158,18.916 -42.158,42.168 v 251.862 l -29.84,47.288 C 46.648,480.276 64.146,512 92.989,512 h 307.467 c 30.449,0 55.222,-24.768 55.222,-55.212 V 156.733 c 0,-23.252 -18.912,-42.169 -42.157,-42.169 z m -279.488,15 h 209.162 c -6.432,7.621 -9.941,17.268 -9.941,27.168 V 403.263 H 106.875 v -246.53 c 0,-14.981 12.184,-27.169 27.158,-27.169 z M 92.989,497 c -17.013,0 -27.35,-18.717 -18.268,-33.112 l 28.789,-45.624 h 223.642 l -23.739,37.619 c -8.188,12.98 -7.458,28.879 1.391,41.117 z m 347.689,-40.212 c 0,22.173 -18.043,40.212 -40.222,40.212 h -66.088 c -17.012,0 -27.35,-18.716 -18.268,-33.112 l 30.997,-49.121 c 0.704,-1.113 1.157,-2.575 1.157,-4.003 V 156.733 c 0,-14.937 12.14,-27.168 27.158,-27.168 h 38.108 c 14.975,0 27.157,12.188 27.157,27.168 v 300.055 z"
       fill="#2115c2"
       id="path952" />
  </g>
</svg>
