<?xml version="1.0" encoding="UTF-8" standalone="no"?>
<svg
   xmlns:dc="http://purl.org/dc/elements/1.1/"
   xmlns:cc="http://creativecommons.org/ns#"
   xmlns:rdf="http://www.w3.org/1999/02/22-rdf-syntax-ns#"
   xmlns:svg="http://www.w3.org/2000/svg"
   xmlns="http://www.w3.org/2000/svg"
   xmlns:sodipodi="http://sodipodi.sourceforge.net/DTD/sodipodi-0.dtd"
   xmlns:inkscape="http://www.inkscape.org/namespaces/inkscape"
   id="Capa_1"
   enable-background="new 0 0 512 512"
   height="200"
   viewBox="0 0 200 200"
   width="200"
   version="1.1"
   sodipodi:docname="icon-palm.svg"
   inkscape:version="1.0.1 (c497b03c, 2020-09-10)"
   inkscape:export-filename="/Users/jasminedavis/Desktop/portfolio-site/styles/SVGs/icon-palm.png"
   inkscape:export-xdpi="96"
   inkscape:export-ydpi="96">
  <metadata
     id="metadata1061">
    <rdf:RDF>
      <cc:Work
         rdf:about="">
        <dc:format>image/svg+xml</dc:format>
        <dc:type
           rdf:resource="http://purl.org/dc/dcmitype/StillImage" />
        <dc:title></dc:title>
      </cc:Work>
    </rdf:RDF>
  </metadata>
  <defs
     id="defs1059" />
  <sodipodi:namedview
     pagecolor="#ffffff"
     bordercolor="#666666"
     borderopacity="1"
     objecttolerance="10"
     gridtolerance="10"
     guidetolerance="10"
     inkscape:pageopacity="0"
     inkscape:pageshadow="2"
     inkscape:window-width="1328"
     inkscape:window-height="856"
     id="namedview1057"
     showgrid="false"
     fit-margin-top="0"
     fit-margin-left="0"
     fit-margin-right="0"
     fit-margin-bottom="0"
     inkscape:zoom="1.4355469"
     inkscape:cx="256"
     inkscape:cy="144.54422"
     inkscape:window-x="2062"
     inkscape:window-y="172"
     inkscape:window-maximized="0"
     inkscape:current-layer="Capa_1" />
  <g
     id="g1054"
     transform="scale(0.390625)">
    <path
       d="m 504.5,256 c 0,99.85 -58.9,185.95 -143.85,225.45 -0.07,-0.51 -0.15,-1.03 -0.25,-1.54 l -7.99,-42.39 -16.16,-85.66 -2.94,-15.63 -5.81,-30.81 71.76,41.29 c 18.22,-31.62 14.13,-72.69 -12.58,-100.13 -16.17,-16.61 -37.55,-25.06 -59.04,-25.3 l 98.85,-28.07 c -10.53,-37.17 -44.7,-64.4 -85.23,-64.4 -40.55,0 -74.73,27.23 -85.26,64.4 -10.53,-37.17 -44.71,-64.4 -85.26,-64.4 -40.53,0 -74.7,27.23 -85.23,64.4 l 99.82,28.34 c -19.52,1.55 -38.58,9.9 -53.32,25.03 -26.7,27.44 -30.8,68.51 -12.58,100.13 l 71.03,-40.87 -5.81,30.81 -2.87,15.21 -16.16,85.66 -7.99,42.39 c -0.26,1.38 -0.44,2.76 -0.54,4.12 C 69.06,445.8 7.5,358.09 7.5,256 7.5,118.76 118.76,7.5 256,7.5 393.24,7.5 504.5,118.76 504.5,256 Z"
       fill="#ff63ed"
       id="path1026" />
    <path
       d="M 256,0 C 113.624,0 0,115.427 0,256 c 0,101.622 60.106,194.088 154.102,234.909 0.957,0.415 1.974,0.621 2.987,0.621 1.35,0 2.694,-0.364 3.881,-1.082 2.08,-1.257 3.421,-3.444 3.6,-5.867 0.08,-1.083 0.225,-2.188 0.43,-3.282 L 197.83,307.23 c 0.543,-2.878 -0.64,-5.809 -3.027,-7.504 -2.388,-1.696 -5.545,-1.847 -8.083,-0.386 l -64.209,36.945 c -12.691,-28.181 -7.025,-61.967 14.872,-84.471 12.891,-13.232 30.13,-21.325 48.542,-22.787 3.619,-0.288 6.512,-3.125 6.87,-6.738 0.358,-3.612 -1.923,-6.962 -5.415,-7.954 L 95.108,188.138 c 11.955,-30.857 42.056,-51.828 75.634,-51.828 36.119,0 68.212,24.239 78.044,58.944 0.914,3.228 3.861,5.456 7.216,5.456 3.354,0 6.302,-2.228 7.216,-5.456 9.832,-34.706 41.925,-58.944 78.044,-58.944 33.579,0 63.68,20.972 75.634,51.828 l -91.303,25.927 c -3.585,1.018 -5.878,4.514 -5.385,8.208 0.493,3.694 3.623,6.465 7.35,6.507 15.224,0.17 29.702,4.764 41.986,13.145 0.079,0.055 0.16,0.106 0.24,0.157 4.108,2.825 7.967,6.076 11.524,9.73 21.902,22.501 27.568,56.288 14.874,84.474 L 331.243,298.92 c -2.539,-1.461 -5.695,-1.31 -8.083,0.386 -2.388,1.696 -3.57,4.626 -3.027,7.504 l 16.842,89.325 c 0.007,0.034 0.012,0.068 0.019,0.102 l 16.048,85.11 c 0.073,0.374 0.13,0.754 0.182,1.128 0.325,2.357 1.75,4.42 3.839,5.56 2.09,1.14 4.597,1.219 6.753,0.216 C 453.648,446.479 512,356.367 512,256 512,115.382 398.263,0 256,0 Z M 151.278,473.119 C 116.494,456.334 86.959,431.823 64.366,402.19 H 164.655 Z M 123.171,353.21 180.068,320.472 167.484,387.19 H 53.806 C 38.4,363.436 27.175,336.967 20.873,308.925 h 80.071 c 0.593,14.313 4.527,28.582 11.988,41.53 2.067,3.587 6.65,4.819 10.239,2.755 z M 101.542,293.925 H 17.994 C 16.022,281.511 15,268.839 15,256 c 0,-4.263 0.118,-8.509 0.336,-12.735 h 109.511 c -13.145,14.316 -21.039,32.142 -23.305,50.66 z m 274.551,-65.66 c -5.146,-3.327 -10.593,-6.117 -16.276,-8.326 l 68.723,-19.515 c 3.982,-1.131 6.296,-5.275 5.167,-9.259 -11.652,-41.13 -49.667,-69.855 -92.446,-69.855 -36.18,0 -68.951,20.529 -85.26,51.729 -16.308,-31.199 -49.08,-51.729 -85.26,-51.729 -42.779,0 -80.794,28.726 -92.446,69.855 -1.129,3.984 1.185,8.128 5.167,9.259 l 72.756,20.656 c -4.698,2.001 -9.21,4.419 -13.516,7.184 H 16.585 C 30.149,109.158 131.259,15 256,15 c 124.746,0 225.852,94.162 239.415,213.265 z m -9.86,242.101 -12.855,-68.176 h 94.201 c -21.749,28.484 -49.478,51.766 -81.346,68.176 z m 91.96,-83.176 H 350.551 l -12.659,-67.138 57.628,33.159 c 3.587,2.065 8.171,0.832 10.238,-2.756 7.461,-12.949 11.397,-27.217 11.991,-41.53 h 73.405 c -6.215,27.725 -17.31,54.197 -32.961,78.265 z m 35.825,-93.265 h -76.866 c -2.266,-18.52 -10.16,-36.345 -23.309,-50.66 h 102.821 c 0.218,4.226 0.336,8.472 0.336,12.735 0,12.781 -1.009,25.456 -2.982,37.925 z"
       fill="#e207b9"
       id="path1028" />
    <path
       d="M 360.65,481.45 C 328.84,496.24 293.39,504.5 256,504.5 c -35.15,0 -68.6,-7.3 -98.91,-20.47 0.1,-1.36 0.28,-2.74 0.54,-4.12 l 7.99,-42.39 h 186.79 l 7.99,42.39 c 0.1,0.51 0.18,1.03 0.25,1.54 z"
       fill="#ffff6f"
       id="path1030" />
    <path
       d="M 336.25,351.86 H 181.78 l 2.87,-15.21 5.81,-30.81 68.89,-39.64 68.15,39.22 5.8,30.81 h 0.01 z"
       fill="#ffff6f"
       id="path1032" />
    <path
       d="m 333.31,347.23 h -0.01 l -52.12,-30 c -13.52,-7.78 -30.15,-7.78 -43.66,0 l -52.87,30.42 5.81,-41.81 68.89,-39.64 68.15,39.22 z"
       fill="#ff9900"
       id="path1034" />
    <path
       d="M 352.41,437.52 H 165.62 l 16.16,-85.66 h 154.47 z"
       fill="#ffff6f"
       id="path1036" />
    <circle
       cx="303.13199"
       cy="383.42999"
       fill="#ff9900"
       r="9.3599997"
       id="circle1038" />
    <g
       id="g1042">
      <path
         d="m 278.837,416.158 h -39.639 c -4.142,0 -7.5,-3.358 -7.5,-7.5 0,-4.142 3.358,-7.5 7.5,-7.5 h 39.639 c 4.143,0 7.5,3.358 7.5,7.5 0,4.142 -3.358,7.5 -7.5,7.5 z"
         fill="#ff9900"
         id="path1040" />
    </g>
    <circle
       cx="214.90199"
       cy="383.42999"
       fill="#ff9900"
       r="9.3599997"
       id="circle1044" />
    <path
       d="m 327.64,221.28 98.85,-28.07 c -10.53,-37.17 -44.7,-64.4 -85.23,-64.4 -40.55,0 -74.73,27.23 -85.26,64.4 -10.53,-37.17 -44.71,-64.4 -85.26,-64.4 -40.53,0 -74.7,27.23 -85.23,64.4 l 99.82,28.34 c -19.52,1.55 -38.58,9.9 -53.32,25.03 -26.7,27.44 -30.8,68.51 -12.58,100.13 l 71.03,-40.87 68.89,-39.64 68.15,39.22 71.76,41.29 c 18.22,-31.62 14.13,-72.69 -12.58,-100.13 -16.17,-16.61 -37.55,-25.06 -59.04,-25.3 z"
       fill="#88f8d8"
       id="path1046" />
    <path
       d="m 368.08,480.425 c -0.089,-0.646 -0.192,-1.305 -0.31,-1.904 l -7.99,-42.387 c 0,-0.001 0,-0.002 0,-0.003 L 343.622,350.48 c 0,-0.002 0,-0.004 -0.001,-0.006 l -2.94,-15.63 c -0.024,-0.125 -0.051,-0.25 -0.08,-0.373 l -5.73,-30.438 c -0.404,-2.153 -1.73,-4.021 -3.629,-5.113 l -68.15,-39.22 c -2.315,-1.333 -5.166,-1.334 -7.482,0 l -68.89,39.64 c -1.898,1.092 -3.224,2.959 -3.629,5.111 l -8.68,46.019 v 10e-4 l -16.16,85.659 v 0.003 l -7.99,42.389 c -0.31,1.647 -0.528,3.314 -0.649,4.957 -0.234,3.179 1.567,6.159 4.491,7.43 C 186.311,504.904 220.594,512 256,512 c 37.645,0 73.918,-7.99 107.813,-23.75 2.986,-1.388 4.717,-4.562 4.267,-7.825 z M 197.191,310.62 l 62.159,-35.767 61.418,35.346 5.162,27.419 c 0.023,0.125 0.05,0.249 0.079,0.371 l 1.198,6.371 H 190.828 Z m -9.193,48.74 h 142.035 l 13.331,70.66 H 174.667 Z M 256,497 c -31.406,0 -61.87,-5.928 -90.637,-17.626 l 6.476,-34.354 h 174.353 l 6.032,32.001 C 321.844,490.281 289.501,497 256,497 Z"
       fill="#ff9900"
       id="path1048" />
    <g
       id="g1052">
      <path
         d="m 399.253,354.211 c -1.27,0 -2.555,-0.322 -3.733,-1.001 L 259.35,274.853 123.17,353.21 c -3.586,2.065 -8.172,0.832 -10.239,-2.756 -20.248,-35.139 -14.613,-80.004 13.703,-109.105 8.496,-8.721 18.568,-15.576 29.583,-20.269 L 83.461,200.424 c -3.983,-1.131 -6.296,-5.275 -5.167,-9.259 11.652,-41.13 49.667,-69.855 92.446,-69.855 36.18,0 68.952,20.529 85.26,51.729 16.309,-31.199 49.08,-51.729 85.26,-51.729 42.779,0 80.794,28.726 92.446,69.855 1.129,3.984 -1.185,8.128 -5.167,9.259 l -68.723,19.515 c 12.01,4.667 22.979,11.899 32.237,21.409 28.321,29.095 33.956,73.961 13.704,109.106 -1.387,2.409 -3.91,3.757 -6.504,3.757 z M 259.35,258.7 c 1.292,0 2.583,0.333 3.741,1 l 133.089,76.586 c 12.694,-28.186 7.028,-61.972 -14.874,-84.474 -14.236,-14.624 -33.325,-22.804 -53.75,-23.032 -3.727,-0.042 -6.856,-2.813 -7.35,-6.507 -0.494,-3.694 1.8,-7.189 5.385,-8.208 l 91.303,-25.927 C 404.94,157.282 374.839,136.31 341.26,136.31 c -36.119,0 -68.212,24.239 -78.044,58.944 -0.914,3.228 -3.861,5.456 -7.216,5.456 -3.355,0 -6.302,-2.228 -7.216,-5.456 -9.832,-34.706 -41.924,-58.944 -78.044,-58.944 -33.579,0 -63.68,20.971 -75.634,51.828 l 92.272,26.197 c 3.492,0.991 5.773,4.341 5.415,7.954 -0.357,3.613 -3.251,6.45 -6.87,6.738 -18.412,1.462 -35.651,9.555 -48.542,22.787 -21.897,22.504 -27.563,56.29 -14.872,84.471 L 255.608,259.7 c 1.159,-0.667 2.451,-1 3.742,-1 z"
         fill="#007ea8"
         id="path1050" />
    </g>
  </g>
</svg>
