<?xml version="1.0" encoding="UTF-8" standalone="no"?>
<svg
   xmlns:dc="http://purl.org/dc/elements/1.1/"
   xmlns:cc="http://creativecommons.org/ns#"
   xmlns:rdf="http://www.w3.org/1999/02/22-rdf-syntax-ns#"
   xmlns:svg="http://www.w3.org/2000/svg"
   xmlns="http://www.w3.org/2000/svg"
   xmlns:sodipodi="http://sodipodi.sourceforge.net/DTD/sodipodi-0.dtd"
   xmlns:inkscape="http://www.inkscape.org/namespaces/inkscape"
   id="Capa_1"
   enable-background="new 0 0 512.077 512.077"
   height="199.99173"
   viewBox="0 0 200.03008 200.02181"
   width="200"
   version="1.1"
   sodipodi:docname="island-inverse.svg"
   inkscape:version="1.0.1 (c497b03c, 2020-09-10)"
   inkscape:export-filename="/Users/jasminedavis/Downloads/icon5.png"
   inkscape:export-xdpi="96"
   inkscape:export-ydpi="96">
  <metadata
     id="metadata2161">
    <rdf:RDF>
      <cc:Work
         rdf:about="">
        <dc:format>image/svg+xml</dc:format>
        <dc:type
           rdf:resource="http://purl.org/dc/dcmitype/StillImage" />
        <dc:title></dc:title>
      </cc:Work>
    </rdf:RDF>
  </metadata>
  <defs
     id="defs2159">
    <filter
       inkscape:collect="always"
       style="color-interpolation-filters:sRGB"
       id="filter847"
       x="-0.072266594"
       width="1.1445332"
       y="-0.11100764"
       height="1.2220153">
      <feGaussianBlur
         inkscape:collect="always"
         stdDeviation="1.1683783"
         id="feGaussianBlur849" />
    </filter>
  </defs>
  <sodipodi:namedview
     pagecolor="#ffffff"
     bordercolor="#666666"
     borderopacity="1"
     objecttolerance="10"
     gridtolerance="10"
     guidetolerance="10"
     inkscape:pageopacity="0"
     inkscape:pageshadow="2"
     inkscape:window-width="1411"
     inkscape:window-height="826"
     id="namedview2157"
     showgrid="false"
     inkscape:zoom="1.4355469"
     inkscape:cx="196.26539"
     inkscape:cy="21.525862"
     inkscape:window-x="3475"
     inkscape:window-y="23"
     inkscape:window-maximized="0"
     inkscape:current-layer="Capa_1"
     inkscape:document-rotation="0" />
  <path
     d="m 184.84456,186.80699 -3.60624,-13.74177 C 178.36176,162.1043 167.1235,154.44924 153.90829,154.44924 h -16.107 V 83.718519 c 6.08788,-2.118746 10.79569,-7.206626 12.37693,-13.524583 l 5.32343,-3.218744 6.71444,4.401164 h 37.81399 l -5.42069,-16.86403 c -3.06875,-9.546856 -9.90428,-17.033561 -18.5613,-21.04449 L 196.68868,23.033481 184.24261,10.428427 C 173.52388,-0.42741088 157.17469,-3.0965463 143.5591,3.7862528 L 131.58842,9.8378035 C 126.02085,12.652642 121.40719,16.797165 118.06579,21.870983 114.79665,16.908102 110.23416,12.705767 104.56073,9.8378035 L 92.590054,3.7862528 C 78.975237,-3.0969369 62.625269,-0.42741088 51.90654,10.428427 L 39.46047,23.033481 60.101055,33.467836 C 51.444041,37.478765 44.608507,44.96547 41.539763,54.512326 l -5.420693,16.86442 h 37.813989 l 6.71444,-4.401554 5.323427,3.218744 c 1.581247,6.317566 6.289051,11.405837 12.37693,13.524583 v 70.730331 h -16.107 c -13.214818,0 -24.453078,7.65506 -27.330025,18.61598 l -2.967963,11.30974 c -2.637105,-1.90741 -6.224207,-3.88397 -11.943727,-3.88397 -7.017174,0 -10.826151,2.97577 -13.607005,5.14842 -2.198824,1.71797 -3.410149,2.66406 -6.392566,2.66406 -2.982416,0 -4.193741,-0.94609 -6.392565,-2.66406 C 10.826151,183.46637 7.0171738,180.4906 0,180.4906 v 11.71872 c 2.9824161,0 4.1933512,0.9461 6.3921751,2.66406 2.7812446,2.17265 6.5898309,5.14843 13.6070049,5.14843 7.017174,0 10.826151,-2.97578 13.607005,-5.14843 2.198823,-1.71796 3.409759,-2.66406 6.392565,-2.66406 2.982026,0 4.193352,0.9461 6.392175,2.66406 2.780854,2.17265 6.589831,5.14843 13.607005,5.14843 7.017174,0 10.826151,-2.97578 13.607005,-5.14843 2.198824,-1.71796 3.41015,-2.66406 6.392566,-2.66406 2.982025,0 4.193351,0.9461 6.392175,2.66406 2.780854,2.17265 6.58944,5.14843 13.606614,5.14843 7.01717,0 10.82615,-2.97578 13.607,-5.14843 2.19883,-1.71796 3.40976,-2.66406 6.39218,-2.66406 2.98242,0 4.19374,0.9461 6.39257,2.66406 2.78124,2.17265 6.58983,5.14843 13.607,5.14843 7.01756,0 10.82615,-2.97578 13.607,-5.14843 2.19883,-1.71796 3.40976,-2.66406 6.39218,-2.66406 2.9832,0 4.19452,0.94649 6.39413,2.66445 2.78124,2.17265 6.59022,5.14804 13.60817,5.14804 7.01757,0 10.82694,-2.97539 13.60779,-5.14804 2.19922,-1.71796 3.41093,-2.66445 6.39413,-2.66445 V 180.4906 c -7.01796,0 -10.82693,2.97538 -13.60818,5.14803 -0.56406,0.4418 -1.06406,0.83164 -1.5457,1.16836 z M 118.07477,79.336106 c 2.22187,2.156636 4.95898,3.782414 8.0078,4.6746 v 9.045295 h -16.0156 v -9.045295 c 3.04883,-0.892186 5.78593,-2.517964 8.0078,-4.6746 z m -6.35858,-34.108918 c 0,-4.163664 3.38749,-7.551157 7.55116,-7.551157 4.16366,0 7.55115,3.387493 7.55115,7.551157 0,0.563671 -0.0668,1.110935 -0.18437,1.63945 -3.27109,0.851561 -6.2039,2.545307 -8.55897,4.831631 -1.69961,-1.649606 -3.69804,-2.992963 -5.90975,-3.931242 -0.28555,-0.794921 -0.44922,-1.647653 -0.44922,-2.539839 z m -1.64922,59.547542 h 16.0156 v 12.92302 h -16.0156 z m 21.41832,-31.70619 c -4.16366,0 -7.55116,-3.387494 -7.55116,-7.551157 0,-4.163664 3.3875,-7.551157 7.55116,-7.551157 4.16366,0 7.55116,3.387493 7.55116,7.551157 0,4.163663 -3.3875,7.551157 -7.55116,7.551157 z m 51.96787,-14.969893 0.50117,1.559372 h -18.23942 l -9.96131,-6.529284 -6.85506,4.144523 c -2.11406,-4.446866 -5.88241,-7.958188 -10.50428,-9.740215 0.0914,-0.756639 0.14297,-1.524997 0.14297,-2.305855 0,-0.442968 -0.0203,-0.881248 -0.05,-1.316795 2.88085,-1.259372 6.05819,-1.962105 9.39803,-1.962105 h 13.41325 c 10.14608,3.91e-4 19.04958,6.490612 22.15465,16.150359 z m -46.57725,-37.80227 11.97068,-6.051551 c 3.35155,-1.694137 6.95037,-2.517964 10.51833,-2.517964 6.07148,0 12.04881,2.387886 16.53943,6.935534 l 1.15116,1.165622 -20.57652,10.401933 h -8.59334 c -4.8664,0 -9.50233,0.996092 -13.72341,2.785932 -1.67812,-2.042964 -3.76952,-3.732024 -6.14218,-4.947256 2.21641,-3.268353 5.23398,-5.941394 8.85585,-7.77225 z M 60.245586,18.662005 c 7.128892,-7.219908 18.002699,-8.9952949 27.057369,-4.417569 l 11.97068,6.05155 c 3.987495,2.016012 7.242955,5.051553 9.500765,8.781233 -1.9457,1.268357 -3.65,2.876557 -5.02538,4.742569 C 99.071292,31.52448 93.817005,30.229561 88.264281,30.229561 H 79.670939 L 59.094416,19.827628 Z m 20.150351,34.46673 -9.961308,6.529284 H 52.195211 l 0.501171,-1.559372 C 55.801454,48.4389 64.704562,41.948679 74.851026,41.948679 h 13.413255 c 3.668353,0 8.530062,1.532809 11.737869,3.088665 -7.8e-4,0.06367 -0.0047,0.126563 -0.0047,0.190234 0,0.532031 0.02891,1.05703 0.07149,1.578122 -5.669915,1.392966 -10.361312,5.299209 -12.817948,10.467949 z m 24.268313,4.837491 c 4.16366,0 7.55116,3.387493 7.55116,7.551157 0,4.163663 -3.3875,7.551157 -7.55116,7.551157 -4.16366,0 -7.551158,-3.387494 -7.551158,-7.551157 0,-4.163664 3.387498,-7.551157 7.551158,-7.551157 z m 5.40272,71.450254 h 16.0156 v 25.03237 h -16.0156 z m 49.92881,51.07412 c -7.01717,0 -10.82576,2.97577 -13.607,5.14842 -2.19883,1.71797 -3.40976,2.66406 -6.39257,2.66406 -2.9828,0 -4.19374,-0.94609 -6.39256,-2.66406 -2.78125,-2.17265 -6.58983,-5.14842 -13.6074,-5.14842 -7.01717,0 -10.82615,2.97577 -13.607,5.14842 -2.19883,1.71797 -3.40976,2.66406 -6.392179,2.66406 -2.982025,0 -4.192961,-0.94609 -6.391784,-2.66406 -2.780854,-2.17265 -6.589441,-5.14842 -13.606615,-5.14842 -7.017564,0 -10.82615,2.97577 -13.607395,5.14842 -1.219919,0.95313 -2.136324,1.66758 -3.219525,2.11562 l 3.074213,-11.71482 c 1.501169,-5.7203 8.228109,-9.87185 15.994891,-9.87185 H 153.9079 c 7.76679,0 14.49373,4.15155 15.99489,9.87185 l 2.22344,8.47225 c -2.65429,-1.94921 -6.27304,-4.02147 -12.13045,-4.02147 z"
     id="path2150"
     style="stroke-width:0.390624;fill:#cc40ff;fill-opacity:1" />
  <path
     d="m 31.16908,123.55711 h 11.718727 c 0,-7.46678 6.074988,-13.54177 13.541771,-13.54177 V 98.296616 c -7.789048,0 -14.763643,3.545304 -19.401134,9.104674 -4.637491,-5.55937 -11.612087,-9.104674 -19.401135,-9.104674 v 11.718724 c 7.466783,0 13.541771,6.07499 13.541771,13.54177 z"
     id="path2152"
     style="stroke-width:0.390624;fill:#daf037;fill-opacity:1;filter:url(#filter847)" />
</svg>
