<?xml version="1.0" encoding="UTF-8" standalone="no"?>
<svg
   xmlns:dc="http://purl.org/dc/elements/1.1/"
   xmlns:cc="http://creativecommons.org/ns#"
   xmlns:rdf="http://www.w3.org/1999/02/22-rdf-syntax-ns#"
   xmlns:svg="http://www.w3.org/2000/svg"
   xmlns="http://www.w3.org/2000/svg"
   xmlns:sodipodi="http://sodipodi.sourceforge.net/DTD/sodipodi-0.dtd"
   xmlns:inkscape="http://www.inkscape.org/namespaces/inkscape"
   id="Capa_1"
   enable-background="new 0 0 512 512"
   height="200"
   viewBox="0 0 200 200"
   width="200"
   version="1.1"
   sodipodi:docname="list.svg"
   inkscape:version="1.0.1 (c497b03c, 2020-09-10)"
   inkscape:export-filename="/Users/jasminedavis/Downloads/icon2.png"
   inkscape:export-xdpi="96"
   inkscape:export-ydpi="96">
  <metadata
     id="metadata2751">
    <rdf:RDF>
      <cc:Work
         rdf:about="">
        <dc:format>image/svg+xml</dc:format>
        <dc:type
           rdf:resource="http://purl.org/dc/dcmitype/StillImage" />
      </cc:Work>
    </rdf:RDF>
  </metadata>
  <defs
     id="defs2749" />
  <sodipodi:namedview
     pagecolor="#ffffff"
     bordercolor="#666666"
     borderopacity="1"
     objecttolerance="10"
     gridtolerance="10"
     guidetolerance="10"
     inkscape:pageopacity="0"
     inkscape:pageshadow="2"
     inkscape:window-width="1639"
     inkscape:window-height="915"
     id="namedview2747"
     showgrid="false"
     inkscape:zoom="1.4355469"
     inkscape:cx="256"
     inkscape:cy="187.73428"
     inkscape:window-x="3753"
     inkscape:window-y="143"
     inkscape:window-maximized="0"
     inkscape:current-layer="Capa_1" />
  <g
     id="g2744"
     transform="scale(0.390625)"
     style="fill:#daf037;fill-opacity:1">
    <path
       d="M 247.292,0 H 83.958 V 30.125 H 0 V 512 H 331.25 V 30.125 H 247.292 Z M 113.958,30 H 217.291 V 60.25 H 113.958 Z M 301.25,60.125 V 482 H 30 V 60.125 H 83.958 V 90.25 H 247.291 V 60.125 Z"
       id="path2724"
       style="fill:#daf037;fill-opacity:1" />
    <path
       d="m 75.25,180.75 h 30.125 v 30 H 75.25 Z"
       id="path2726"
       style="fill:#daf037;fill-opacity:1" />
    <path
       d="M 135.5,180.75 H 256 v 30 H 135.5 Z"
       id="path2728"
       style="fill:#daf037;fill-opacity:1" />
    <path
       d="m 75.25,241 h 30.125 v 30 H 75.25 Z"
       id="path2730"
       style="fill:#daf037;fill-opacity:1" />
    <path
       d="M 135.5,241 H 256 v 30 H 135.5 Z"
       id="path2732"
       style="fill:#daf037;fill-opacity:1" />
    <path
       d="m 75.25,301.25 h 30.125 v 30 H 75.25 Z"
       id="path2734"
       style="fill:#daf037;fill-opacity:1" />
    <path
       d="M 135.5,301.25 H 256 v 30 H 135.5 Z"
       id="path2736"
       style="fill:#daf037;fill-opacity:1" />
    <path
       d="m 75.25,361.5 h 30.125 v 30 H 75.25 Z"
       id="path2738"
       style="fill:#daf037;fill-opacity:1" />
    <path
       d="M 135.5,361.5 H 256 v 30 H 135.5 Z"
       id="path2740"
       style="fill:#daf037;fill-opacity:1" />
    <path
       d="M 451.75,60.25 V 30.125 H 421.625 V 0 h -30 V 30.125 H 361.5 v 411.75 c 0,19.624 12.596,36.354 30.125,42.552 V 512 h 30 V 484.427 C 439.154,478.229 451.75,461.5 451.75,441.875 V 90.25 H 482 v 105.5 h 30 V 60.25 Z m -30,-0.125 V 120.5 H 391.5 V 60.125 Z m 0,90.375 v 30.25 H 391.5 V 150.5 Z M 406.625,457 c -8.34,0 -15.125,-6.785 -15.125,-15.125 V 210.75 h 30.25 v 231.125 c 0,8.34 -6.785,15.125 -15.125,15.125 z"
       id="path2742"
       style="fill:#daf037;fill-opacity:1" />
  </g>
</svg>
