<?xml version="1.0" encoding="UTF-8" standalone="no"?>
<svg
   xmlns:dc="http://purl.org/dc/elements/1.1/"
   xmlns:cc="http://creativecommons.org/ns#"
   xmlns:rdf="http://www.w3.org/1999/02/22-rdf-syntax-ns#"
   xmlns:svg="http://www.w3.org/2000/svg"
   xmlns="http://www.w3.org/2000/svg"
   xmlns:sodipodi="http://sodipodi.sourceforge.net/DTD/sodipodi-0.dtd"
   xmlns:inkscape="http://www.inkscape.org/namespaces/inkscape"
   version="1.1"
   id="Capa_1"
   x="0px"
   y="0px"
   viewBox="0 0 200 187.6207"
   xml:space="preserve"
   sodipodi:docname="programming.svg"
   inkscape:version="1.0.1 (c497b03c, 2020-09-10)"
   width="200"
   height="187.6207"><metadata
   id="metadata892"><rdf:RDF><cc:Work
       rdf:about=""><dc:format>image/svg+xml</dc:format><dc:type
         rdf:resource="http://purl.org/dc/dcmitype/StillImage" /></cc:Work></rdf:RDF></metadata><defs
   id="defs890" /><sodipodi:namedview
   pagecolor="#ffffff"
   bordercolor="#666666"
   borderopacity="1"
   objecttolerance="10"
   gridtolerance="10"
   guidetolerance="10"
   inkscape:pageopacity="0"
   inkscape:pageshadow="2"
   inkscape:window-width="1418"
   inkscape:window-height="923"
   id="namedview888"
   showgrid="false"
   inkscape:zoom="1.2070312"
   inkscape:cx="294.93851"
   inkscape:cy="240.155"
   inkscape:window-x="3826"
   inkscape:window-y="23"
   inkscape:window-maximized="0"
   inkscape:current-layer="Capa_1"
   inkscape:document-rotation="0" />
<g
   id="g837"
   style="fill:#cc40ff;fill-opacity:1"
   transform="matrix(0.390625,0,0,0.390625,0,-6.1894531)">
	<g
   id="g835"
   style="fill:#cc40ff;fill-opacity:1">
		<path
   d="m 0,15.845 v 420.259 h 164.332 v 30.049 h -30.036 v 30.001 H 377.703 V 466.153 H 347.667 V 436.104 H 512 V 15.845 Z M 317.665,466.153 H 194.334 v -30.049 h 123.332 v 30.049 z m 164.334,-60.05 H 30.001 v -60.075 h 451.997 v 60.075 z m 0,-90.076 H 30.001 V 45.847 h 451.997 v 270.18 z"
   id="path833"
   style="fill:#cc40ff;fill-opacity:1" />
	</g>
</g>
<g
   id="g843"
   style="fill:#da40ff;fill-opacity:1"
   transform="matrix(0.390625,0,0,0.390625,0,-6.1894531)">
	<g
   id="g841"
   style="fill:#da40ff;fill-opacity:1">
		<polygon
   points="182.729,256.375 203.943,235.161 149.718,180.937 203.943,126.712 182.729,105.498 107.29,180.937 "
   id="polygon839"
   style="fill:#da40ff;fill-opacity:1" />
	</g>
</g>
<g
   id="g849"
   style="fill:#da40ff;fill-opacity:1"
   transform="matrix(0.390625,0,0,0.390625,0,-6.1894531)">
	<g
   id="g847"
   style="fill:#da40ff;fill-opacity:1">
		<polygon
   points="308.057,235.161 329.271,256.375 404.709,180.937 329.271,105.498 308.057,126.712 362.282,180.937 "
   id="polygon845"
   style="fill:#da40ff;fill-opacity:1" />
	</g>
</g>
<g
   id="g855"
   style="fill:#da40ff;fill-opacity:1"
   transform="matrix(0.390625,0,0,0.390625,0,-6.1894531)">
	<g
   id="g853"
   style="fill:#da40ff;fill-opacity:1">
		
			<rect
   x="166.742"
   y="165.94701"
   transform="matrix(0.1951,-0.9808,0.9808,0.1951,28.5815,396.7237)"
   width="178.511"
   height="30.002001"
   id="rect851"
   style="fill:#da40ff;fill-opacity:1" />
	</g>
</g>
<g
   id="g857"
   transform="translate(0,-15.845)">
</g>
<g
   id="g859"
   transform="translate(0,-15.845)">
</g>
<g
   id="g861"
   transform="translate(0,-15.845)">
</g>
<g
   id="g863"
   transform="translate(0,-15.845)">
</g>
<g
   id="g865"
   transform="translate(0,-15.845)">
</g>
<g
   id="g867"
   transform="translate(0,-15.845)">
</g>
<g
   id="g869"
   transform="translate(0,-15.845)">
</g>
<g
   id="g871"
   transform="translate(0,-15.845)">
</g>
<g
   id="g873"
   transform="translate(0,-15.845)">
</g>
<g
   id="g875"
   transform="translate(0,-15.845)">
</g>
<g
   id="g877"
   transform="translate(0,-15.845)">
</g>
<g
   id="g879"
   transform="translate(0,-15.845)">
</g>
<g
   id="g881"
   transform="translate(0,-15.845)">
</g>
<g
   id="g883"
   transform="translate(0,-15.845)">
</g>
<g
   id="g885"
   transform="translate(0,-15.845)">
</g>
</svg>
